<svg width="526" height="219" viewBox="0 0 526 219" fill="none" xmlns="http://www.w3.org/2000/svg">
<path d="M177.748 14.13C180.333 9.93504 183.333 5.04004 184.408 3.25504C185.488 1.47504 186.498 0.005038 186.658 3.79994e-05C186.823 -0.009962 187.893 1.95504 189.043 4.37504C190.193 6.79004 192.968 12.59 195.213 17.265C197.458 21.94 199.978 27.23 200.813 29.015C201.643 30.8 202.738 33.05 204.153 35.765L200.643 41.515C198.713 44.675 196.613 48.05 195.978 49.015C195.343 49.98 190.213 58.19 184.573 67.265C178.933 76.34 168.363 93.325 161.083 105.015C153.803 116.7 142.383 135.04 135.708 145.765C129.033 156.49 120.133 170.775 115.933 177.515C111.733 184.255 104.363 196.065 90.8284 217.765L71.7684 217.89C59.3084 217.97 52.7034 217.84 52.7034 217.515C52.7034 217.24 53.0134 216.51 53.3884 215.89C53.7634 215.27 59.1334 206.555 65.3134 196.515C71.4984 186.48 81.6884 169.94 87.9584 159.765C94.2284 149.59 100.758 139.015 102.463 136.265C104.173 133.515 106.893 129.08 108.508 126.415C110.128 123.745 114.693 116.32 118.653 109.915C122.613 103.505 130.848 90.165 136.953 80.265C143.063 70.365 153.678 53.15 160.548 42.015C167.418 30.875 175.158 18.33 177.748 14.13Z" fill="#56A873"/>
<path d="M109.803 39.0146C115.983 28.9796 123.913 16.0946 127.418 10.3896C130.928 4.68465 133.893 0.0146484 134.003 0.0146484C134.113 0.0146484 136.088 3.89465 138.388 8.63965C140.688 13.3846 143.978 20.1896 145.698 23.7646C147.413 27.3396 149.368 31.4996 150.038 33.0146C150.708 34.5296 151.113 36.1046 150.938 36.5146C150.768 36.9246 148.803 40.1896 146.583 43.7646C144.358 47.3396 137.148 58.9246 130.558 69.5146C123.963 80.1046 116.973 91.2997 115.013 94.3997C113.053 97.4996 110.458 101.66 109.238 103.65C108.018 105.64 100.503 117.73 92.5384 130.515C84.5684 143.3 72.7284 162.315 66.2184 172.765C59.7084 183.215 51.4734 196.425 47.9184 202.125C44.3634 207.825 40.7234 213.73 38.2034 218.015H19.2034C8.75339 218.015 0.113388 217.845 0.00838793 217.64C-0.101612 217.435 0.883388 215.58 2.19339 213.515C3.50339 211.455 9.69839 201.44 15.9584 191.265C22.2234 181.09 31.7834 165.565 37.2084 156.765C42.6334 147.965 52.7484 131.54 59.6934 120.265C66.6334 108.99 73.1584 98.4146 74.1934 96.7646C75.2334 95.1146 81.1384 85.5497 87.3234 75.5146C93.5034 65.4796 103.623 49.0496 109.803 39.0146Z" fill="#C53631"/>
<path d="M219.993 119.12C220.057 119.211 222.756 126.137 225.993 134.515C229.233 142.9 232.418 151.23 233.073 153.015C234.058 155.71 234.164 156.48 233.684 157.515C233.364 158.205 225.623 171.365 216.483 186.765C207.343 202.165 199.433 215.499 197.953 218.024L179.078 218.02C166.833 218.015 160.203 217.84 160.203 217.515C160.203 217.24 162.713 212.91 165.783 207.89C168.853 202.87 173.818 194.715 176.823 189.765C179.823 184.815 183.648 178.515 185.318 175.765C186.988 173.015 195.448 159.11 204.118 144.87C212.788 130.625 219.933 119.035 219.993 119.12ZM237.884 0.0146484C238.149 0.0153142 238.544 0.635054 238.769 1.38965C238.994 2.1449 242.183 9.06482 245.858 16.7646C249.528 24.4644 253.078 31.9392 254.953 35.9893L253.128 38.8799C252.122 40.4658 247.038 48.6253 241.828 57.0146C236.618 65.4047 227.518 80.0247 221.608 89.5146C215.693 99.0046 206.513 113.74 201.203 122.265C195.898 130.79 186.783 145.415 180.958 154.765C175.128 164.115 165.459 179.64 159.469 189.265C153.479 198.89 147.033 209.295 141.703 218.015H103.203L104.288 216.14C104.888 215.11 110.369 206.165 116.469 196.265C122.574 186.365 132.688 169.94 138.953 159.765C145.223 149.59 155.409 133.05 161.599 123.015C167.784 112.98 177.903 96.5496 184.088 86.5146C190.268 76.4799 196.173 66.915 197.203 65.2646C198.233 63.6146 203.794 54.6146 209.554 45.2646C215.314 35.9147 223.933 21.9096 228.713 14.1396C233.488 6.36965 237.619 0.0146484 237.884 0.0146484ZM316.238 154.43C317.858 153.73 319.258 153.525 321.453 153.67C323.103 153.775 324.958 154.124 325.578 154.439C326.588 154.954 326.638 155.144 326.078 156.284C325.661 157.134 325.203 157.446 324.703 157.22C324.293 157.035 322.828 156.759 321.453 156.609C319.618 156.409 318.588 156.56 317.578 157.175C316.823 157.64 315.949 158.52 315.634 159.14C315.199 160.005 315.224 160.649 315.759 161.939C316.329 163.304 317.218 163.99 320.658 165.689C322.968 166.829 325.388 168.385 326.033 169.14C326.673 169.895 327.344 171.36 327.514 172.39C327.684 173.42 327.574 175.11 327.264 176.14C326.959 177.17 326.028 178.58 325.203 179.265C324.378 179.955 322.748 180.764 321.578 181.069C320.398 181.379 318.173 181.489 316.578 181.319C314.998 181.154 313.198 180.759 312.578 180.444C311.958 180.134 311.393 179.854 311.323 179.819C311.249 179.788 311.419 179.143 312.203 177.015L314.328 177.774C315.498 178.194 317.298 178.529 318.328 178.524C319.358 178.519 320.878 178.18 321.703 177.765C322.528 177.355 323.443 176.395 323.733 175.64C324.023 174.885 324.118 173.705 323.943 173.015C323.768 172.33 323.248 171.359 322.788 170.859C322.327 170.359 320.098 169.069 317.828 167.984C314.033 166.17 313.619 165.824 312.639 163.64C311.934 162.07 311.673 160.755 311.868 159.765C312.033 158.94 312.584 157.619 313.099 156.824C313.609 156.034 315.024 154.96 316.238 154.43ZM420.203 154.015C423.313 154.015 425.813 154.274 426.828 154.699C427.718 155.079 428.929 155.919 429.514 156.574C430.094 157.229 430.723 158.44 430.908 159.265C431.088 160.09 431.009 161.495 430.724 162.39C430.439 163.285 429.468 164.595 428.578 165.31C427.318 166.309 427.123 166.67 427.703 166.915C428.113 167.085 429.068 167.74 429.828 168.37C430.583 169 431.448 170.36 431.748 171.39C432.138 172.715 432.143 173.85 431.773 175.265C431.483 176.364 430.734 177.759 430.099 178.359C429.469 178.964 428.163 179.785 427.203 180.18C426.238 180.58 424.328 181.065 422.953 181.255C421.578 181.45 419.268 181.475 415.203 181.015V154.015H420.203ZM259.509 154.015C261.703 154.015 261.703 154.015 262.648 156.64C263.173 158.085 264.803 162.814 266.273 167.149C267.748 171.483 269.122 175.027 269.328 175.024C269.533 175.019 269.919 174.06 270.174 172.89C270.434 171.719 272.008 166.994 276.703 154.015H278.953C280.193 154.015 281.218 154.185 281.238 154.39C281.258 154.595 281.653 160.67 282.953 181.015L281.453 181.024C280.223 181.034 279.893 180.784 279.613 179.649C279.428 178.889 279.088 174.054 278.863 168.904C278.563 162.045 278.308 159.705 277.903 160.154C277.603 160.489 276.734 162.565 275.969 164.765C275.209 166.965 273.539 171.54 272.269 174.93C270.094 180.72 269.878 181.085 268.703 180.93C267.553 180.78 267.188 179.974 264.088 170.765C262.243 165.265 260.553 160.705 260.338 160.635C260.128 160.568 259.778 163.382 259.563 166.885C259.348 170.395 259.013 175.01 258.453 181.024L255.203 181.015L255.448 178.64C255.578 177.335 255.923 172.665 256.208 168.265C256.488 163.865 256.854 158.86 257.014 157.14L257.309 154.015H259.509ZM446.049 154.015C447.653 154.015 448.273 154.235 448.493 154.89C448.653 155.37 450.678 161.335 452.993 168.14C455.308 174.945 457.203 180.63 457.203 180.765C457.203 180.9 456.378 180.96 455.368 180.89C453.538 180.765 453.523 180.744 450.868 172.765H440.964L438.453 181.024L434.703 181.015L439.299 167.515L443.898 154.015H446.049ZM308.703 181.015H304.703L301.953 172.505H292.453L289.703 181.015H287.953C286.988 181.015 286.214 180.825 286.224 180.595C286.239 180.365 288.153 174.57 290.488 167.72C292.818 160.87 294.828 154.985 294.953 154.64C295.083 154.27 296.053 154.019 299.453 154.024L308.703 181.015ZM336.203 165.515L348.953 165.265L349.083 154.015H352.703V181.015H349.203V168.515H336.203V181.015H332.703V154.015H336.203V165.515ZM363.099 160.385C364.829 163.895 366.404 166.575 366.599 166.345C366.794 166.114 368.304 163.298 372.953 154.265L374.953 154.085C376.498 153.945 376.883 154.06 376.648 154.585C376.483 154.961 374.512 158.417 368.193 169.265L368.203 181.015H364.703V170.015L360.453 162.265C358.113 158.005 356.203 154.4 356.203 154.265C356.203 154.13 357.043 154.015 359.953 154.01L363.099 160.385ZM381.703 154.015C383.688 154.015 383.723 154.05 387.023 159.14C388.853 161.96 391.833 166.74 396.953 175.265L397.174 154.015H400.203V181.015L398.368 180.89C396.603 180.77 396.398 180.539 392.608 174.515C390.448 171.08 387.503 166.245 383.453 159.295L383.203 181.015H379.703V154.015H381.703ZM479.174 155.14C479.164 155.76 475.823 161.105 464.363 177.765L479.198 178.015V181.015H459.698L459.708 179.89C459.718 179.27 463.083 173.88 474.698 157.015H460.698V154.015H479.198L479.174 155.14ZM508.488 154.31C508.738 154.105 511.548 154.01 514.733 154.1C520.153 154.255 520.648 154.355 522.363 155.64C523.638 156.595 524.348 157.625 524.698 159.015C525.032 160.348 525.032 161.681 524.698 163.015C524.353 164.4 523.583 165.515 522.198 166.64C520.628 167.915 520.358 168.345 520.948 168.64C521.358 168.845 522.033 169.52 522.438 170.14C522.848 170.76 523.748 173.345 524.438 175.89C525.133 178.435 525.698 180.63 525.698 180.765C525.698 180.9 524.908 181.015 523.948 181.015C522.238 181.015 522.179 180.945 521.434 178.14C521.014 176.56 520.449 174.42 520.184 173.39C519.904 172.315 519.113 171.08 518.323 170.5C517.338 169.77 516.198 169.485 511.698 169.515V181.015H508.198L508.113 167.85C508.068 160.415 508.228 154.52 508.488 154.31ZM499.403 166.875C501.853 173.963 503.992 180.067 504.153 180.444C504.383 180.969 503.993 181.085 500.509 180.765L497.448 172.455L488.033 172.765L485.368 180.765L483.408 180.944C481.898 181.084 481.519 180.969 481.759 180.444C481.93 180.065 484.034 173.967 486.438 166.89L490.809 154.015L494.948 153.984L499.403 166.875ZM418.703 168.02V178.52C422.578 178.52 424.488 178.18 425.453 177.77C426.413 177.355 427.428 176.57 427.703 176.02C427.978 175.469 428.209 174.284 428.219 173.395C428.229 172.5 427.779 171.149 427.219 170.395C426.644 169.615 425.388 168.805 424.328 168.52C423.298 168.25 421.608 168.025 420.578 168.02H418.703ZM297.273 158.02C297.068 158.02 296.148 160.435 295.238 163.395C294.329 166.348 293.499 169.048 293.394 169.395C293.254 169.855 294.233 170.02 297.203 170.02C300.168 170.02 301.154 169.855 301.019 169.395C300.913 169.048 300.118 166.349 299.243 163.395C298.368 160.435 297.484 158.02 297.273 158.02ZM446.043 158.11C445.978 158.025 445.088 160.39 444.063 163.36C443.039 166.334 442.204 169.048 442.203 169.395C442.203 169.84 443.288 170.02 445.953 170.02C448.618 170.02 449.703 169.84 449.708 169.395C449.707 169.048 448.913 166.404 447.938 163.52C446.959 160.631 446.109 158.203 446.043 158.11ZM492.858 158.649C492.633 158.59 491.714 160.95 490.804 163.899C489.899 166.853 489.169 169.432 489.179 169.645C489.194 169.85 490.888 170.02 492.953 170.02C495.013 170.02 496.698 169.85 496.698 169.645C496.692 169.432 495.923 166.903 494.979 164.02C494.039 161.13 493.083 158.714 492.858 158.649ZM515.563 156.595C513.853 156.5 512.248 156.595 511.993 156.805C511.743 157.015 511.573 159.285 511.618 161.85L511.703 166.52C517.788 166.52 518.404 166.345 519.759 165.145C521.073 163.98 521.314 163.419 521.304 161.52C521.289 159.755 521.003 158.994 519.979 158.02C518.934 157.015 518.058 156.735 515.563 156.595ZM418.703 156.52L418.693 165.77C424.093 165.145 425.263 164.73 426.078 163.905C426.693 163.28 427.313 162.26 427.453 161.645C427.588 161.024 427.478 159.954 427.203 159.27C426.928 158.58 426.028 157.679 425.203 157.27C424.378 156.855 422.578 156.52 421.203 156.52H418.703ZM336.328 94.8896C336.448 116.685 336.483 117.335 337.563 120.015C338.173 121.525 339.408 123.485 340.313 124.37C341.214 125.25 342.963 126.325 344.203 126.755C345.443 127.185 347.128 127.529 347.953 127.524C348.778 127.514 350.353 127.265 351.453 126.965C352.553 126.665 354.183 125.875 355.078 125.215C355.973 124.555 357.184 123.06 357.764 121.89C358.349 120.72 359.134 118.305 359.509 116.515C360.014 114.09 360.188 108.099 360.203 72.5146H375.203L375.019 94.3896C374.854 114.37 374.748 116.59 373.828 120.015C373.278 122.08 372.203 125.005 371.438 126.515C370.673 128.025 368.874 130.505 367.434 132.015C365.994 133.525 363.609 135.384 362.134 136.145C360.659 136.905 358.213 137.855 356.703 138.26C355.193 138.665 352.038 139.13 349.703 139.29C346.928 139.485 344.063 139.34 341.453 138.87C339.253 138.475 336.213 137.575 334.703 136.87C333.193 136.17 330.748 134.505 329.273 133.18C327.333 131.43 326.058 129.66 324.653 126.765C323.338 124.055 322.468 121.315 321.953 118.265C321.358 114.74 321.193 109.3 321.198 93.1396L321.203 72.5146H336.203L336.328 94.8896ZM271.453 72.085C275.913 72.045 280.878 72.3199 283.703 72.7549C286.318 73.1649 289.463 73.8044 290.703 74.1895C291.943 74.5694 294.413 75.6196 296.203 76.5195C298.273 77.5595 300.744 79.445 303.009 81.71C305.009 83.7099 307.168 86.4697 307.943 88.0146C308.703 89.5246 309.753 92.4547 310.278 94.5146C310.928 97.0647 311.238 100.025 311.243 103.765C311.248 106.79 310.913 110.955 310.488 113.015C310.063 115.125 308.759 118.735 307.514 121.265C305.749 124.865 304.593 126.44 301.753 129.14C299.408 131.37 296.973 133.105 294.578 134.245C292.583 135.2 289.268 136.414 287.203 136.949C285.143 137.484 281.088 138.2 278.203 138.54C274.703 138.95 270.12 139.043 264.453 138.819C259.778 138.639 255.333 138.38 253.203 138.015V105.765C253.203 80.4326 253.338 73.4661 253.828 73.2695C254.173 73.1395 256.588 72.8298 259.203 72.5898C261.818 72.3499 267.328 72.12 271.453 72.085ZM393.703 72.5449C396.318 72.2949 402.728 72.165 407.953 72.25C414.708 72.365 418.283 72.6449 420.328 73.2148C421.908 73.6548 424.328 74.5797 425.703 75.2646C427.078 75.9547 429.149 77.4697 430.304 78.6396C431.459 79.8097 432.833 81.7747 433.363 83.0146C433.988 84.4746 434.318 86.4046 434.313 88.5146C434.308 90.3046 433.989 92.5546 433.599 93.5146C433.214 94.4795 432.234 96.1342 431.424 97.1992C430.614 98.2641 428.654 99.9492 427.059 100.949C425.469 101.949 424.174 102.82 424.184 102.89C424.194 102.96 425.383 103.535 426.828 104.17C428.273 104.805 430.428 106.21 431.618 107.295C432.813 108.38 434.344 110.39 435.019 111.765C435.754 113.25 436.373 115.58 436.543 117.515C436.753 119.855 436.588 121.605 435.958 123.765C435.478 125.415 434.579 127.555 433.969 128.515C433.354 129.48 431.858 131.154 430.653 132.234C429.443 133.319 427.103 134.819 425.453 135.564C423.803 136.314 420.538 137.335 418.203 137.835C414.848 138.555 411.693 138.75 403.203 138.755C397.288 138.76 391.383 138.595 387.703 138.015V105.765C387.703 80.4397 387.838 73.4625 388.328 73.2549C388.673 73.1149 391.088 72.7949 393.703 72.5449ZM491.453 104.814C496.953 122.569 501.508 137.415 501.578 137.805C501.683 138.395 500.353 138.514 485.953 138.529L484.863 135.145C484.263 133.284 483.083 129.459 480.703 121.515L461.953 121.484L456.953 138.545L449.328 138.529C442.313 138.514 441.723 138.445 441.943 137.64C442.078 137.16 446.578 122.42 451.943 104.89C457.313 87.3596 461.703 72.9046 461.703 72.7646C461.703 72.6296 466.148 72.5193 481.453 72.5293L491.453 104.814ZM525.453 138.265L510.703 138.515V72.5146H525.703L525.453 138.265ZM402.778 118.57L402.698 128.265C411.693 127.745 413.613 127.375 415.653 126.47C417.193 125.78 418.788 124.62 419.373 123.765C419.938 122.94 420.584 121.42 420.804 120.39C421.034 119.31 420.988 117.615 420.693 116.39C420.388 115.11 419.543 113.65 418.568 112.715C417.678 111.86 416.053 110.81 414.953 110.38C413.853 109.95 410.683 109.435 407.903 109.235L402.858 108.87L402.778 118.57ZM274.453 83.5801C271.978 83.6101 269.503 83.7354 268.958 83.8604C267.978 84.0854 267.963 84.4779 268.083 105.55L268.203 127.015C270.333 127.53 273.318 127.425 276.203 127.11C280.128 126.685 282.213 126.179 284.453 125.104C286.103 124.314 288.439 122.68 289.639 121.47C290.839 120.255 292.328 118.255 292.943 117.015C293.563 115.775 294.313 113.64 294.618 112.265C294.923 110.89 295.309 108.525 295.479 107.015C295.648 105.505 295.538 102.465 295.229 100.265C294.923 98.0647 294.149 95.1396 293.514 93.7646C292.879 92.3896 291.423 90.3096 290.278 89.1396C289.138 87.9697 287.248 86.5294 286.078 85.9395C284.908 85.3445 282.828 84.5603 281.453 84.1953C280.078 83.8253 276.928 83.5501 274.453 83.5801ZM471.134 84.6943C470.954 84.5893 470.683 84.8948 470.533 85.3848C470.383 85.8705 469.788 88.2901 469.213 90.7646C468.643 93.2397 467.278 98.4698 466.188 102.39C465.098 106.31 464.203 109.74 464.203 110.015C464.204 110.325 466.869 110.515 471.203 110.515C476.468 110.515 478.203 110.36 478.203 109.89C478.203 109.545 476.878 104.65 475.248 99.0146C473.623 93.3796 472.103 87.8941 471.873 86.8291C471.643 85.7598 471.309 84.805 471.134 84.6943ZM402.703 83.0146V98.5146C411.583 98.2646 412.898 98.0199 414.943 97.0049C416.558 96.1999 417.783 95.1496 418.418 94.0146C418.958 93.0496 419.414 91.3248 419.429 90.1748C419.444 88.8249 419.089 87.5898 418.424 86.6748C417.859 85.8999 416.394 84.7548 415.174 84.1348C413.294 83.1798 412.163 83.0048 407.828 83.0098L402.703 83.0146Z" fill="#1A1819"/>
</svg>
